M48
; DRILL file {KiCad (6.0.2)} date Mon Jun  6 19:17:43 2022
; FORMAT={-:-/ absolute / metric / decimal}
; #@! TF.CreationDate,2022-06-06T19:17:43-05:00
; #@! TF.GenerationSoftware,Kicad,Pcbnew,(6.0.2)
; #@! TF.FileFunction,NonPlated,1,2,NPTH
FMAT,2
METRIC
; #@! TA.AperFunction,NonPlated,NPTH,ComponentDrill
T1C0.650
; #@! TA.AperFunction,NonPlated,NPTH,ComponentDrill
T2C3.200
; #@! TA.AperFunction,NonPlated,NPTH,ComponentDrill
T3C5.050
%
G90
G05
T1
X222.08Y-63.767
X227.86Y-63.767
T2
X74.066Y-152.298
X76.352Y-70.002
X76.886Y-213.385
X203.505Y-220.802
X206.756Y-65.786
X328.092Y-213.208
X329.768Y-71.577
X338.176Y-152.171
T3
X101.295Y-107.62
X131.42Y-107.899
X156.794Y-123.012
X172.542Y-176.987
X229.514Y-143.104
X232.004Y-114.351
X258.039Y-132.537
X260.883Y-102.26
X286.791Y-131.946
X289.941Y-102.946
X315.824Y-141.326
X318.948Y-109.22
T0
M30
