%TF.GenerationSoftware,KiCad,Pcbnew,(6.0.2)*%
%TF.CreationDate,2022-05-18T13:57:05-05:00*%
%TF.ProjectId,Pikin,50696b69-6e2e-46b6-9963-61645f706362,rev?*%
%TF.SameCoordinates,Original*%
%TF.FileFunction,Legend,Bot*%
%TF.FilePolarity,Positive*%
%FSLAX46Y46*%
G04 Gerber Fmt 4.6, Leading zero omitted, Abs format (unit mm)*
G04 Created by KiCad (PCBNEW (6.0.2)) date 2022-05-18 13:57:05*
%MOMM*%
%LPD*%
G01*
G04 APERTURE LIST*
%ADD10C,2.600000*%
%ADD11C,5.050000*%
%ADD12C,2.200000*%
%ADD13C,2.000000*%
%ADD14C,0.650000*%
%ADD15O,1.000000X2.100000*%
%ADD16O,1.000000X1.600000*%
%ADD17C,3.200000*%
%ADD18R,2.000000X2.000000*%
%ADD19C,1.700000*%
%ADD20R,1.700000X1.700000*%
%ADD21C,2.500000*%
G04 APERTURE END LIST*
%LPC*%
D10*
X324000000Y-104450000D03*
D11*
X319000000Y-109600000D03*
D12*
X319000000Y-115500000D03*
X314000000Y-113400000D03*
D13*
X127560000Y-73950000D03*
X134060000Y-73950000D03*
X127560000Y-78450000D03*
X134060000Y-78450000D03*
X173990000Y-73950000D03*
X180490000Y-73950000D03*
X180490000Y-78450000D03*
X173990000Y-78450000D03*
D14*
X221900000Y-65850000D03*
X227680000Y-65850000D03*
D15*
X220470000Y-66380000D03*
D16*
X229110000Y-62200000D03*
X220470000Y-62200000D03*
D15*
X229110000Y-66380000D03*
D10*
X321026800Y-136886800D03*
D11*
X316026800Y-142036800D03*
D12*
X316026800Y-147936800D03*
X311026800Y-145836800D03*
D17*
X97000000Y-71400000D03*
D10*
X237200000Y-110050000D03*
D11*
X232200000Y-115200000D03*
D12*
X232200000Y-121100000D03*
X227200000Y-119000000D03*
D10*
X265629400Y-98405800D03*
D11*
X260629400Y-103555800D03*
D12*
X260629400Y-109455800D03*
X255629400Y-107355800D03*
D17*
X94600000Y-210600000D03*
D13*
X112320000Y-73950000D03*
X118820000Y-73950000D03*
X112320000Y-78450000D03*
X118820000Y-78450000D03*
D17*
X329000000Y-69600000D03*
X206806800Y-66471800D03*
D13*
X158040000Y-73950000D03*
X164540000Y-73950000D03*
X164540000Y-78450000D03*
X158040000Y-78450000D03*
D10*
X106687000Y-103816000D03*
D11*
X101687000Y-108966000D03*
D12*
X101687000Y-114866000D03*
X96687000Y-112766000D03*
D17*
X208600000Y-213200000D03*
D11*
X156946600Y-123596400D03*
D10*
X161946600Y-118446400D03*
D12*
X156946600Y-129496400D03*
X151946600Y-127396400D03*
D11*
X289647000Y-105156000D03*
D10*
X294647000Y-100006000D03*
D12*
X289647000Y-111056000D03*
X284647000Y-108956000D03*
D13*
X191060000Y-73950000D03*
X197560000Y-73950000D03*
X191060000Y-78450000D03*
X197560000Y-78450000D03*
D10*
X234489000Y-138461600D03*
D11*
X229489000Y-143611600D03*
D12*
X229489000Y-149511600D03*
X224489000Y-147411600D03*
D13*
X307844049Y-169893505D03*
X307844049Y-167353505D03*
X305314049Y-169893505D03*
X305314049Y-167353505D03*
X302774049Y-169903505D03*
X302774049Y-167353505D03*
X300234049Y-169890185D03*
X300234049Y-167353505D03*
X297694049Y-169893505D03*
X297694049Y-167353505D03*
X295154049Y-169893505D03*
X295154049Y-167353505D03*
X292614049Y-169893505D03*
X292614049Y-167353505D03*
X290074049Y-169893505D03*
X290074049Y-167353505D03*
X287534049Y-169893505D03*
X287534049Y-167353505D03*
D18*
X284994049Y-169893505D03*
D13*
X284994049Y-167353505D03*
X311834049Y-177493505D03*
X311834049Y-180033505D03*
X311834049Y-182573505D03*
D18*
X311834049Y-185113505D03*
D19*
X311834049Y-190089505D03*
X311834049Y-192117505D03*
X311834049Y-194117505D03*
X311834049Y-196117505D03*
X311834049Y-198117505D03*
D20*
X262740049Y-169297505D03*
D19*
X260740049Y-169297505D03*
X258740049Y-169297505D03*
X256740049Y-169297505D03*
D13*
X249203049Y-172501505D03*
X246663049Y-172501505D03*
X244123049Y-172501505D03*
D18*
X241583049Y-172501505D03*
D21*
X306850049Y-205558505D03*
X303260049Y-205558505D03*
X299760049Y-205558505D03*
X296260049Y-205558505D03*
X292760049Y-205558505D03*
X289260049Y-205558505D03*
X285760049Y-205558505D03*
X282260049Y-205558505D03*
X278760049Y-205558505D03*
X275260049Y-205558505D03*
X271760049Y-205558505D03*
X268260049Y-205558505D03*
X264760049Y-205558505D03*
X261260049Y-205558505D03*
X257760049Y-205558505D03*
X254260049Y-205558505D03*
X250760049Y-205558505D03*
X247260049Y-205558505D03*
X243760049Y-205558505D03*
X240260049Y-205558505D03*
D10*
X262897000Y-127946000D03*
D11*
X257897000Y-133096000D03*
D12*
X257897000Y-138996000D03*
X252897000Y-136896000D03*
D11*
X286512000Y-133096000D03*
D10*
X291512000Y-127946000D03*
D12*
X286512000Y-138996000D03*
X281512000Y-136896000D03*
D17*
X328600000Y-212400000D03*
D11*
X131318000Y-108381800D03*
D10*
X136318000Y-103231800D03*
D12*
X131318000Y-114281800D03*
X126318000Y-112181800D03*
D10*
X177000000Y-173450000D03*
D11*
X172000000Y-178600000D03*
D12*
X172000000Y-184500000D03*
X167000000Y-182400000D03*
D13*
X142800000Y-73660000D03*
X149300000Y-73660000D03*
X149300000Y-78160000D03*
X142800000Y-78160000D03*
M02*
