M48
; DRILL file {KiCad (6.0.2)} date Mon Jun  6 19:17:43 2022
; FORMAT={-:-/ absolute / metric / decimal}
; #@! TF.CreationDate,2022-06-06T19:17:43-05:00
; #@! TF.GenerationSoftware,Kicad,Pcbnew,(6.0.2)
; #@! TF.FileFunction,Plated,1,2,PTH
FMAT,2
METRIC
; #@! TA.AperFunction,Plated,PTH,ViaDrill
T1C0.400
; #@! TA.AperFunction,Plated,PTH,ComponentDrill
T2C0.600
; #@! TA.AperFunction,Plated,PTH,ComponentDrill
T3C1.000
; #@! TA.AperFunction,Plated,PTH,ComponentDrill
T4C1.100
; #@! TA.AperFunction,Plated,PTH,ComponentDrill
T5C1.200
; #@! TA.AperFunction,Plated,PTH,ComponentDrill
T6C1.500
; #@! TA.AperFunction,Plated,PTH,ComponentDrill
T7C1.600
%
G90
G05
T1
X177.887Y-115.316
X184.15Y-116.84
X184.604Y-127.0
X199.39Y-96.52
X201.93Y-149.86
X201.93Y-185.42
X204.47Y-198.12
X219.89Y-69.037
X223.175Y-69.037
X228.272Y-66.497
X240.208Y-160.934
X242.406Y-164.629
X257.81Y-180.34
X265.43Y-195.58
X265.88Y-71.12
X273.05Y-167.64
X280.67Y-185.42
X286.004Y-182.372
X300.99Y-144.0
T3
X99.212Y-187.376
X99.212Y-189.376
X99.212Y-193.876
X99.212Y-195.876
X99.212Y-197.876
X99.212Y-199.876
X99.212Y-201.876
X99.212Y-203.876
T4
X112.32Y-73.95
X112.32Y-78.45
X118.82Y-73.95
X118.82Y-78.45
X127.56Y-73.95
X127.56Y-78.45
X134.06Y-73.95
X134.06Y-78.45
X142.8Y-73.66
X142.8Y-78.16
X149.3Y-73.66
X149.3Y-78.16
X158.04Y-73.95
X158.04Y-78.45
X164.54Y-73.95
X164.54Y-78.45
X173.99Y-73.95
X173.99Y-78.45
X180.49Y-73.95
X180.49Y-78.45
X191.06Y-73.95
X191.06Y-78.45
X197.56Y-73.95
X197.56Y-78.45
T5
X96.295Y-111.42
X101.295Y-113.52
X126.42Y-111.699
X131.42Y-113.799
X151.794Y-126.812
X156.794Y-128.912
X167.542Y-180.787
X172.542Y-182.887
X224.514Y-146.904
X227.004Y-118.151
X229.514Y-149.004
X232.004Y-120.251
X241.064Y-170.393
X243.604Y-170.393
X246.144Y-170.393
X248.684Y-170.393
X253.039Y-136.337
X255.883Y-106.06
X256.221Y-167.189
X258.039Y-138.437
X258.221Y-167.189
X260.221Y-167.189
X260.883Y-108.16
X262.221Y-167.189
X281.791Y-135.746
X284.475Y-165.245
X284.475Y-167.785
X284.941Y-106.746
X286.791Y-137.846
X287.015Y-165.245
X287.015Y-167.785
X289.555Y-165.245
X289.555Y-167.785
X289.941Y-108.846
X292.095Y-165.245
X292.095Y-167.785
X294.635Y-165.245
X294.635Y-167.785
X297.175Y-165.245
X297.175Y-167.785
X299.715Y-165.245
X299.715Y-167.782
X302.255Y-165.245
X302.255Y-167.795
X304.795Y-165.245
X304.795Y-167.785
X307.325Y-165.245
X307.325Y-167.785
X310.824Y-145.126
X311.315Y-175.385
X311.315Y-177.925
X311.315Y-180.465
X311.315Y-183.005
X311.315Y-187.981
X311.315Y-190.009
X311.315Y-192.009
X311.315Y-194.009
X311.315Y-196.009
X313.948Y-113.02
X315.824Y-147.226
X318.948Y-115.12
T6
X239.741Y-203.45
X243.241Y-203.45
X246.741Y-203.45
X250.241Y-203.45
X253.741Y-203.45
X257.241Y-203.45
X260.741Y-203.45
X264.241Y-203.45
X267.741Y-203.45
X271.241Y-203.45
X274.741Y-203.45
X278.241Y-203.45
X281.741Y-203.45
X285.241Y-203.45
X288.741Y-203.45
X292.241Y-203.45
X295.741Y-203.45
X299.241Y-203.45
X302.741Y-203.45
X306.331Y-203.45
T7
X106.295Y-102.47
X136.42Y-102.749
X161.794Y-117.862
X177.542Y-171.837
X234.514Y-137.954
X237.004Y-109.201
X263.039Y-127.387
X265.883Y-97.11
X291.791Y-126.796
X294.941Y-97.796
X320.824Y-136.176
X323.948Y-104.07
T2
X220.65Y-60.417G85X220.65Y-59.817
G05
X220.65Y-64.847G85X220.65Y-63.747
G05
X229.29Y-60.417G85X229.29Y-59.817
G05
X229.29Y-64.847G85X229.29Y-63.747
G05
T0
M30
