%TF.GenerationSoftware,KiCad,Pcbnew,(6.0.2)*%
%TF.CreationDate,2022-05-18T13:57:05-05:00*%
%TF.ProjectId,Pikin,50696b69-6e2e-46b6-9963-61645f706362,rev?*%
%TF.SameCoordinates,Original*%
%TF.FileFunction,Legend,Top*%
%TF.FilePolarity,Positive*%
%FSLAX46Y46*%
G04 Gerber Fmt 4.6, Leading zero omitted, Abs format (unit mm)*
G04 Created by KiCad (PCBNEW (6.0.2)) date 2022-05-18 13:57:05*
%MOMM*%
%LPD*%
G01*
G04 APERTURE LIST*
G04 Aperture macros list*
%AMRoundRect*
0 Rectangle with rounded corners*
0 $1 Rounding radius*
0 $2 $3 $4 $5 $6 $7 $8 $9 X,Y pos of 4 corners*
0 Add a 4 corners polygon primitive as box body*
4,1,4,$2,$3,$4,$5,$6,$7,$8,$9,$2,$3,0*
0 Add four circle primitives for the rounded corners*
1,1,$1+$1,$2,$3*
1,1,$1+$1,$4,$5*
1,1,$1+$1,$6,$7*
1,1,$1+$1,$8,$9*
0 Add four rect primitives between the rounded corners*
20,1,$1+$1,$2,$3,$4,$5,0*
20,1,$1+$1,$4,$5,$6,$7,0*
20,1,$1+$1,$6,$7,$8,$9,0*
20,1,$1+$1,$8,$9,$2,$3,0*%
G04 Aperture macros list end*
%ADD10C,0.150000*%
%ADD11C,0.120000*%
%ADD12C,5.050000*%
%ADD13C,2.000000*%
%ADD14C,0.650000*%
%ADD15R,0.600000X1.450000*%
%ADD16R,0.300000X1.450000*%
%ADD17C,3.200000*%
%ADD18RoundRect,0.250000X0.350000X0.450000X-0.350000X0.450000X-0.350000X-0.450000X0.350000X-0.450000X0*%
%ADD19RoundRect,0.250000X-0.350000X-0.450000X0.350000X-0.450000X0.350000X0.450000X-0.350000X0.450000X0*%
%ADD20R,2.000000X2.000000*%
%ADD21C,1.700000*%
%ADD22R,1.700000X1.700000*%
%ADD23C,2.500000*%
G04 APERTURE END LIST*
D10*
X109954042Y-207039871D02*
X109954042Y-205539871D01*
X110525471Y-205539871D01*
X110668328Y-205611300D01*
X110739757Y-205682728D01*
X110811185Y-205825585D01*
X110811185Y-206039871D01*
X110739757Y-206182728D01*
X110668328Y-206254157D01*
X110525471Y-206325585D01*
X109954042Y-206325585D01*
X111454042Y-207039871D02*
X111454042Y-206039871D01*
X111454042Y-205539871D02*
X111382614Y-205611300D01*
X111454042Y-205682728D01*
X111525471Y-205611300D01*
X111454042Y-205539871D01*
X111454042Y-205682728D01*
X112168328Y-207039871D02*
X112168328Y-205539871D01*
X112311185Y-206468442D02*
X112739757Y-207039871D01*
X112739757Y-206039871D02*
X112168328Y-206611300D01*
X113382614Y-207039871D02*
X113382614Y-206039871D01*
X113382614Y-205539871D02*
X113311185Y-205611300D01*
X113382614Y-205682728D01*
X113454042Y-205611300D01*
X113382614Y-205539871D01*
X113382614Y-205682728D01*
X114096900Y-206039871D02*
X114096900Y-207039871D01*
X114096900Y-206182728D02*
X114168328Y-206111300D01*
X114311185Y-206039871D01*
X114525471Y-206039871D01*
X114668328Y-206111300D01*
X114739757Y-206254157D01*
X114739757Y-207039871D01*
X109954042Y-209454871D02*
X109954042Y-207954871D01*
X110596900Y-209454871D02*
X110596900Y-208669157D01*
X110525471Y-208526300D01*
X110382614Y-208454871D01*
X110168328Y-208454871D01*
X110025471Y-208526300D01*
X109954042Y-208597728D01*
X111096900Y-208454871D02*
X111668328Y-208454871D01*
X111311185Y-207954871D02*
X111311185Y-209240585D01*
X111382614Y-209383442D01*
X111525471Y-209454871D01*
X111668328Y-209454871D01*
X111954042Y-208454871D02*
X112525471Y-208454871D01*
X112168328Y-207954871D02*
X112168328Y-209240585D01*
X112239757Y-209383442D01*
X112382614Y-209454871D01*
X112525471Y-209454871D01*
X113025471Y-208454871D02*
X113025471Y-209954871D01*
X113025471Y-208526300D02*
X113168328Y-208454871D01*
X113454042Y-208454871D01*
X113596900Y-208526300D01*
X113668328Y-208597728D01*
X113739757Y-208740585D01*
X113739757Y-209169157D01*
X113668328Y-209312014D01*
X113596900Y-209383442D01*
X113454042Y-209454871D01*
X113168328Y-209454871D01*
X113025471Y-209383442D01*
X114311185Y-209383442D02*
X114454042Y-209454871D01*
X114739757Y-209454871D01*
X114882614Y-209383442D01*
X114954042Y-209240585D01*
X114954042Y-209169157D01*
X114882614Y-209026300D01*
X114739757Y-208954871D01*
X114525471Y-208954871D01*
X114382614Y-208883442D01*
X114311185Y-208740585D01*
X114311185Y-208669157D01*
X114382614Y-208526300D01*
X114525471Y-208454871D01*
X114739757Y-208454871D01*
X114882614Y-208526300D01*
X115596900Y-209312014D02*
X115668328Y-209383442D01*
X115596900Y-209454871D01*
X115525471Y-209383442D01*
X115596900Y-209312014D01*
X115596900Y-209454871D01*
X115596900Y-208526300D02*
X115668328Y-208597728D01*
X115596900Y-208669157D01*
X115525471Y-208597728D01*
X115596900Y-208526300D01*
X115596900Y-208669157D01*
X117382614Y-207883442D02*
X116096900Y-209812014D01*
X118954042Y-207883442D02*
X117668328Y-209812014D01*
X120096900Y-208454871D02*
X120096900Y-209669157D01*
X120025471Y-209812014D01*
X119954042Y-209883442D01*
X119811185Y-209954871D01*
X119596900Y-209954871D01*
X119454042Y-209883442D01*
X120096900Y-209383442D02*
X119954042Y-209454871D01*
X119668328Y-209454871D01*
X119525471Y-209383442D01*
X119454042Y-209312014D01*
X119382614Y-209169157D01*
X119382614Y-208740585D01*
X119454042Y-208597728D01*
X119525471Y-208526300D01*
X119668328Y-208454871D01*
X119954042Y-208454871D01*
X120096900Y-208526300D01*
X120811185Y-209454871D02*
X120811185Y-208454871D01*
X120811185Y-207954871D02*
X120739757Y-208026300D01*
X120811185Y-208097728D01*
X120882614Y-208026300D01*
X120811185Y-207954871D01*
X120811185Y-208097728D01*
X121311185Y-208454871D02*
X121882614Y-208454871D01*
X121525471Y-207954871D02*
X121525471Y-209240585D01*
X121596900Y-209383442D01*
X121739757Y-209454871D01*
X121882614Y-209454871D01*
X122382614Y-209454871D02*
X122382614Y-207954871D01*
X123025471Y-209454871D02*
X123025471Y-208669157D01*
X122954042Y-208526300D01*
X122811185Y-208454871D01*
X122596900Y-208454871D01*
X122454042Y-208526300D01*
X122382614Y-208597728D01*
X124382614Y-208454871D02*
X124382614Y-209454871D01*
X123739757Y-208454871D02*
X123739757Y-209240585D01*
X123811185Y-209383442D01*
X123954042Y-209454871D01*
X124168328Y-209454871D01*
X124311185Y-209383442D01*
X124382614Y-209312014D01*
X125096900Y-209454871D02*
X125096900Y-207954871D01*
X125096900Y-208526300D02*
X125239757Y-208454871D01*
X125525471Y-208454871D01*
X125668328Y-208526300D01*
X125739757Y-208597728D01*
X125811185Y-208740585D01*
X125811185Y-209169157D01*
X125739757Y-209312014D01*
X125668328Y-209383442D01*
X125525471Y-209454871D01*
X125239757Y-209454871D01*
X125096900Y-209383442D01*
X126454042Y-209312014D02*
X126525471Y-209383442D01*
X126454042Y-209454871D01*
X126382614Y-209383442D01*
X126454042Y-209312014D01*
X126454042Y-209454871D01*
X127811185Y-209383442D02*
X127668328Y-209454871D01*
X127382614Y-209454871D01*
X127239757Y-209383442D01*
X127168328Y-209312014D01*
X127096900Y-209169157D01*
X127096900Y-208740585D01*
X127168328Y-208597728D01*
X127239757Y-208526300D01*
X127382614Y-208454871D01*
X127668328Y-208454871D01*
X127811185Y-208526300D01*
X128668328Y-209454871D02*
X128525471Y-209383442D01*
X128454042Y-209312014D01*
X128382614Y-209169157D01*
X128382614Y-208740585D01*
X128454042Y-208597728D01*
X128525471Y-208526300D01*
X128668328Y-208454871D01*
X128882614Y-208454871D01*
X129025471Y-208526300D01*
X129096900Y-208597728D01*
X129168328Y-208740585D01*
X129168328Y-209169157D01*
X129096900Y-209312014D01*
X129025471Y-209383442D01*
X128882614Y-209454871D01*
X128668328Y-209454871D01*
X129811185Y-209454871D02*
X129811185Y-208454871D01*
X129811185Y-208597728D02*
X129882614Y-208526300D01*
X130025471Y-208454871D01*
X130239757Y-208454871D01*
X130382614Y-208526300D01*
X130454042Y-208669157D01*
X130454042Y-209454871D01*
X130454042Y-208669157D02*
X130525471Y-208526300D01*
X130668328Y-208454871D01*
X130882614Y-208454871D01*
X131025471Y-208526300D01*
X131096900Y-208669157D01*
X131096900Y-209454871D01*
X132882614Y-207883442D02*
X131596900Y-209812014D01*
X133382614Y-209454871D02*
X133382614Y-207954871D01*
X133882614Y-209026300D01*
X134382614Y-207954871D01*
X134382614Y-209454871D01*
X135739757Y-209454871D02*
X135739757Y-208669157D01*
X135668328Y-208526300D01*
X135525471Y-208454871D01*
X135239757Y-208454871D01*
X135096900Y-208526300D01*
X135739757Y-209383442D02*
X135596900Y-209454871D01*
X135239757Y-209454871D01*
X135096900Y-209383442D01*
X135025471Y-209240585D01*
X135025471Y-209097728D01*
X135096900Y-208954871D01*
X135239757Y-208883442D01*
X135596900Y-208883442D01*
X135739757Y-208812014D01*
X136311185Y-208454871D02*
X136668328Y-209454871D01*
X137025471Y-208454871D02*
X136668328Y-209454871D01*
X136525471Y-209812014D01*
X136454042Y-209883442D01*
X136311185Y-209954871D01*
X137811185Y-209454871D02*
X137668328Y-209383442D01*
X137596900Y-209312014D01*
X137525471Y-209169157D01*
X137525471Y-208740585D01*
X137596900Y-208597728D01*
X137668328Y-208526300D01*
X137811185Y-208454871D01*
X138025471Y-208454871D01*
X138168328Y-208526300D01*
X138239757Y-208597728D01*
X138311185Y-208740585D01*
X138311185Y-209169157D01*
X138239757Y-209312014D01*
X138168328Y-209383442D01*
X138025471Y-209454871D01*
X137811185Y-209454871D01*
X138811185Y-208454871D02*
X139096900Y-209454871D01*
X139382614Y-208740585D01*
X139668328Y-209454871D01*
X139954042Y-208454871D01*
X141168328Y-209454871D02*
X141168328Y-208669157D01*
X141096900Y-208526300D01*
X140954042Y-208454871D01*
X140668328Y-208454871D01*
X140525471Y-208526300D01*
X141168328Y-209383442D02*
X141025471Y-209454871D01*
X140668328Y-209454871D01*
X140525471Y-209383442D01*
X140454042Y-209240585D01*
X140454042Y-209097728D01*
X140525471Y-208954871D01*
X140668328Y-208883442D01*
X141025471Y-208883442D01*
X141168328Y-208812014D01*
X141882614Y-208883442D02*
X143025471Y-208883442D01*
X143739757Y-209454871D02*
X143739757Y-207954871D01*
X144096900Y-207954871D01*
X144311185Y-208026300D01*
X144454042Y-208169157D01*
X144525471Y-208312014D01*
X144596900Y-208597728D01*
X144596900Y-208812014D01*
X144525471Y-209097728D01*
X144454042Y-209240585D01*
X144311185Y-209383442D01*
X144096900Y-209454871D01*
X143739757Y-209454871D01*
X145882614Y-209454871D02*
X145882614Y-208669157D01*
X145811185Y-208526300D01*
X145668328Y-208454871D01*
X145382614Y-208454871D01*
X145239757Y-208526300D01*
X145882614Y-209383442D02*
X145739757Y-209454871D01*
X145382614Y-209454871D01*
X145239757Y-209383442D01*
X145168328Y-209240585D01*
X145168328Y-209097728D01*
X145239757Y-208954871D01*
X145382614Y-208883442D01*
X145739757Y-208883442D01*
X145882614Y-208812014D01*
X146596900Y-208454871D02*
X146596900Y-209454871D01*
X146596900Y-208597728D02*
X146668328Y-208526300D01*
X146811185Y-208454871D01*
X147025471Y-208454871D01*
X147168328Y-208526300D01*
X147239757Y-208669157D01*
X147239757Y-209454871D01*
X147954042Y-209454871D02*
X147954042Y-208454871D01*
X147954042Y-207954871D02*
X147882614Y-208026300D01*
X147954042Y-208097728D01*
X148025471Y-208026300D01*
X147954042Y-207954871D01*
X147954042Y-208097728D01*
X149239757Y-209383442D02*
X149096900Y-209454871D01*
X148811185Y-209454871D01*
X148668328Y-209383442D01*
X148596900Y-209240585D01*
X148596900Y-208669157D01*
X148668328Y-208526300D01*
X148811185Y-208454871D01*
X149096900Y-208454871D01*
X149239757Y-208526300D01*
X149311185Y-208669157D01*
X149311185Y-208812014D01*
X148596900Y-208954871D01*
X150168328Y-209454871D02*
X150025471Y-209383442D01*
X149954042Y-209240585D01*
X149954042Y-207954871D01*
X151811185Y-207883442D02*
X150525471Y-209812014D01*
X152311185Y-209454871D02*
X152311185Y-207954871D01*
X152882614Y-207954871D01*
X153025471Y-208026300D01*
X153096900Y-208097728D01*
X153168328Y-208240585D01*
X153168328Y-208454871D01*
X153096900Y-208597728D01*
X153025471Y-208669157D01*
X152882614Y-208740585D01*
X152311185Y-208740585D01*
X153811185Y-209454871D02*
X153811185Y-208454871D01*
X153811185Y-207954871D02*
X153739757Y-208026300D01*
X153811185Y-208097728D01*
X153882614Y-208026300D01*
X153811185Y-207954871D01*
X153811185Y-208097728D01*
X154525471Y-209454871D02*
X154525471Y-207954871D01*
X154668328Y-208883442D02*
X155096900Y-209454871D01*
X155096900Y-208454871D02*
X154525471Y-209026300D01*
X155739757Y-209454871D02*
X155739757Y-208454871D01*
X155739757Y-207954871D02*
X155668328Y-208026300D01*
X155739757Y-208097728D01*
X155811185Y-208026300D01*
X155739757Y-207954871D01*
X155739757Y-208097728D01*
X156454042Y-208454871D02*
X156454042Y-209454871D01*
X156454042Y-208597728D02*
X156525471Y-208526300D01*
X156668328Y-208454871D01*
X156882614Y-208454871D01*
X157025471Y-208526300D01*
X157096900Y-208669157D01*
X157096900Y-209454871D01*
X288853666Y-87818980D02*
X289472714Y-87818980D01*
X289139380Y-88199933D01*
X289282238Y-88199933D01*
X289377476Y-88247552D01*
X289425095Y-88295171D01*
X289472714Y-88390409D01*
X289472714Y-88628504D01*
X289425095Y-88723742D01*
X289377476Y-88771361D01*
X289282238Y-88818980D01*
X288996523Y-88818980D01*
X288901285Y-88771361D01*
X288853666Y-88723742D01*
X289901285Y-88818980D02*
X289901285Y-87818980D01*
X290282238Y-87818980D01*
X290377476Y-87866600D01*
X290425095Y-87914219D01*
X290472714Y-88009457D01*
X290472714Y-88152314D01*
X290425095Y-88247552D01*
X290377476Y-88295171D01*
X290282238Y-88342790D01*
X289901285Y-88342790D01*
X286796266Y-147534380D02*
X287415314Y-147534380D01*
X287081980Y-147915333D01*
X287224838Y-147915333D01*
X287320076Y-147962952D01*
X287367695Y-148010571D01*
X287415314Y-148105809D01*
X287415314Y-148343904D01*
X287367695Y-148439142D01*
X287320076Y-148486761D01*
X287224838Y-148534380D01*
X286939123Y-148534380D01*
X286843885Y-148486761D01*
X286796266Y-148439142D01*
X287843885Y-148534380D02*
X287843885Y-147534380D01*
X288415314Y-148534380D02*
X287986742Y-147962952D01*
X288415314Y-147534380D02*
X287843885Y-148105809D01*
X319273276Y-93333914D02*
X319273276Y-94000580D01*
X319035180Y-92952961D02*
X318797085Y-93667247D01*
X319416133Y-93667247D01*
X319797085Y-94000580D02*
X319797085Y-93000580D01*
X320178038Y-93000580D01*
X320273276Y-93048200D01*
X320320895Y-93095819D01*
X320368514Y-93191057D01*
X320368514Y-93333914D01*
X320320895Y-93429152D01*
X320273276Y-93476771D01*
X320178038Y-93524390D01*
X319797085Y-93524390D01*
X228995314Y-159227780D02*
X228423885Y-159227780D01*
X228709600Y-159227780D02*
X228709600Y-158227780D01*
X228614361Y-158370638D01*
X228519123Y-158465876D01*
X228423885Y-158513495D01*
X229423885Y-159227780D02*
X229423885Y-158227780D01*
X229995314Y-159227780D02*
X229566742Y-158656352D01*
X229995314Y-158227780D02*
X229423885Y-158799209D01*
X231357514Y-100172780D02*
X230786085Y-100172780D01*
X231071800Y-100172780D02*
X231071800Y-99172780D01*
X230976561Y-99315638D01*
X230881323Y-99410876D01*
X230786085Y-99458495D01*
X231786085Y-100172780D02*
X231786085Y-99172780D01*
X232167038Y-99172780D01*
X232262276Y-99220400D01*
X232309895Y-99268019D01*
X232357514Y-99363257D01*
X232357514Y-99506114D01*
X232309895Y-99601352D01*
X232262276Y-99648971D01*
X232167038Y-99696590D01*
X231786085Y-99696590D01*
X260504085Y-87050619D02*
X260551704Y-87003000D01*
X260646942Y-86955380D01*
X260885038Y-86955380D01*
X260980276Y-87003000D01*
X261027895Y-87050619D01*
X261075514Y-87145857D01*
X261075514Y-87241095D01*
X261027895Y-87383952D01*
X260456466Y-87955380D01*
X261075514Y-87955380D01*
X261504085Y-87955380D02*
X261504085Y-86955380D01*
X261885038Y-86955380D01*
X261980276Y-87003000D01*
X262027895Y-87050619D01*
X262075514Y-87145857D01*
X262075514Y-87288714D01*
X262027895Y-87383952D01*
X261980276Y-87431571D01*
X261885038Y-87479190D01*
X261504085Y-87479190D01*
X256617885Y-147248619D02*
X256665504Y-147201000D01*
X256760742Y-147153380D01*
X256998838Y-147153380D01*
X257094076Y-147201000D01*
X257141695Y-147248619D01*
X257189314Y-147343857D01*
X257189314Y-147439095D01*
X257141695Y-147581952D01*
X256570266Y-148153380D01*
X257189314Y-148153380D01*
X257617885Y-148153380D02*
X257617885Y-147153380D01*
X258189314Y-148153380D02*
X257760742Y-147581952D01*
X258189314Y-147153380D02*
X257617885Y-147724809D01*
X316472914Y-157392714D02*
X316472914Y-158059380D01*
X316234819Y-157011761D02*
X315996723Y-157726047D01*
X316615771Y-157726047D01*
X316996723Y-158059380D02*
X316996723Y-157059380D01*
X317091961Y-157678428D02*
X317377676Y-158059380D01*
X317377676Y-157392714D02*
X316996723Y-157773666D01*
X317238095Y-119052380D02*
X317238095Y-118052380D01*
X317571428Y-118766666D01*
X317904761Y-118052380D01*
X317904761Y-119052380D01*
X318285714Y-118052380D02*
X318952380Y-119052380D01*
X318952380Y-118052380D02*
X318285714Y-119052380D01*
X319857142Y-119052380D02*
X319285714Y-119052380D01*
X319571428Y-119052380D02*
X319571428Y-118052380D01*
X319476190Y-118195238D01*
X319380952Y-118290476D01*
X319285714Y-118338095D01*
X320238095Y-118147619D02*
X320285714Y-118100000D01*
X320380952Y-118052380D01*
X320619047Y-118052380D01*
X320714285Y-118100000D01*
X320761904Y-118147619D01*
X320809523Y-118242857D01*
X320809523Y-118338095D01*
X320761904Y-118480952D01*
X320190476Y-119052380D01*
X320809523Y-119052380D01*
X129476666Y-72354761D02*
X129619523Y-72402380D01*
X129857619Y-72402380D01*
X129952857Y-72354761D01*
X130000476Y-72307142D01*
X130048095Y-72211904D01*
X130048095Y-72116666D01*
X130000476Y-72021428D01*
X129952857Y-71973809D01*
X129857619Y-71926190D01*
X129667142Y-71878571D01*
X129571904Y-71830952D01*
X129524285Y-71783333D01*
X129476666Y-71688095D01*
X129476666Y-71592857D01*
X129524285Y-71497619D01*
X129571904Y-71450000D01*
X129667142Y-71402380D01*
X129905238Y-71402380D01*
X130048095Y-71450000D01*
X130381428Y-71402380D02*
X130619523Y-72402380D01*
X130810000Y-71688095D01*
X131000476Y-72402380D01*
X131238571Y-71402380D01*
X132048095Y-71402380D02*
X131857619Y-71402380D01*
X131762380Y-71450000D01*
X131714761Y-71497619D01*
X131619523Y-71640476D01*
X131571904Y-71830952D01*
X131571904Y-72211904D01*
X131619523Y-72307142D01*
X131667142Y-72354761D01*
X131762380Y-72402380D01*
X131952857Y-72402380D01*
X132048095Y-72354761D01*
X132095714Y-72307142D01*
X132143333Y-72211904D01*
X132143333Y-71973809D01*
X132095714Y-71878571D01*
X132048095Y-71830952D01*
X131952857Y-71783333D01*
X131762380Y-71783333D01*
X131667142Y-71830952D01*
X131619523Y-71878571D01*
X131571904Y-71973809D01*
X175906666Y-72354761D02*
X176049523Y-72402380D01*
X176287619Y-72402380D01*
X176382857Y-72354761D01*
X176430476Y-72307142D01*
X176478095Y-72211904D01*
X176478095Y-72116666D01*
X176430476Y-72021428D01*
X176382857Y-71973809D01*
X176287619Y-71926190D01*
X176097142Y-71878571D01*
X176001904Y-71830952D01*
X175954285Y-71783333D01*
X175906666Y-71688095D01*
X175906666Y-71592857D01*
X175954285Y-71497619D01*
X176001904Y-71450000D01*
X176097142Y-71402380D01*
X176335238Y-71402380D01*
X176478095Y-71450000D01*
X176811428Y-71402380D02*
X177049523Y-72402380D01*
X177240000Y-71688095D01*
X177430476Y-72402380D01*
X177668571Y-71402380D01*
X178478095Y-71735714D02*
X178478095Y-72402380D01*
X178240000Y-71354761D02*
X178001904Y-72069047D01*
X178620952Y-72069047D01*
X223051904Y-68302380D02*
X223051904Y-69111904D01*
X223099523Y-69207142D01*
X223147142Y-69254761D01*
X223242380Y-69302380D01*
X223432857Y-69302380D01*
X223528095Y-69254761D01*
X223575714Y-69207142D01*
X223623333Y-69111904D01*
X223623333Y-68302380D01*
X224051904Y-69254761D02*
X224194761Y-69302380D01*
X224432857Y-69302380D01*
X224528095Y-69254761D01*
X224575714Y-69207142D01*
X224623333Y-69111904D01*
X224623333Y-69016666D01*
X224575714Y-68921428D01*
X224528095Y-68873809D01*
X224432857Y-68826190D01*
X224242380Y-68778571D01*
X224147142Y-68730952D01*
X224099523Y-68683333D01*
X224051904Y-68588095D01*
X224051904Y-68492857D01*
X224099523Y-68397619D01*
X224147142Y-68350000D01*
X224242380Y-68302380D01*
X224480476Y-68302380D01*
X224623333Y-68350000D01*
X225385238Y-68778571D02*
X225528095Y-68826190D01*
X225575714Y-68873809D01*
X225623333Y-68969047D01*
X225623333Y-69111904D01*
X225575714Y-69207142D01*
X225528095Y-69254761D01*
X225432857Y-69302380D01*
X225051904Y-69302380D01*
X225051904Y-68302380D01*
X225385238Y-68302380D01*
X225480476Y-68350000D01*
X225528095Y-68397619D01*
X225575714Y-68492857D01*
X225575714Y-68588095D01*
X225528095Y-68683333D01*
X225480476Y-68730952D01*
X225385238Y-68778571D01*
X225051904Y-68778571D01*
X226575714Y-69302380D02*
X226004285Y-69302380D01*
X226290000Y-69302380D02*
X226290000Y-68302380D01*
X226194761Y-68445238D01*
X226099523Y-68540476D01*
X226004285Y-68588095D01*
X314741085Y-151489180D02*
X314741085Y-150489180D01*
X315074419Y-151203466D01*
X315407752Y-150489180D01*
X315407752Y-151489180D01*
X315788704Y-150489180D02*
X316455371Y-151489180D01*
X316455371Y-150489180D02*
X315788704Y-151489180D01*
X316979180Y-150917752D02*
X316883942Y-150870133D01*
X316836323Y-150822514D01*
X316788704Y-150727276D01*
X316788704Y-150679657D01*
X316836323Y-150584419D01*
X316883942Y-150536800D01*
X316979180Y-150489180D01*
X317169657Y-150489180D01*
X317264895Y-150536800D01*
X317312514Y-150584419D01*
X317360133Y-150679657D01*
X317360133Y-150727276D01*
X317312514Y-150822514D01*
X317264895Y-150870133D01*
X317169657Y-150917752D01*
X316979180Y-150917752D01*
X316883942Y-150965371D01*
X316836323Y-151012990D01*
X316788704Y-151108228D01*
X316788704Y-151298704D01*
X316836323Y-151393942D01*
X316883942Y-151441561D01*
X316979180Y-151489180D01*
X317169657Y-151489180D01*
X317264895Y-151441561D01*
X317312514Y-151393942D01*
X317360133Y-151298704D01*
X317360133Y-151108228D01*
X317312514Y-151012990D01*
X317264895Y-150965371D01*
X317169657Y-150917752D01*
X95666666Y-67652380D02*
X95333333Y-67176190D01*
X95095238Y-67652380D02*
X95095238Y-66652380D01*
X95476190Y-66652380D01*
X95571428Y-66700000D01*
X95619047Y-66747619D01*
X95666666Y-66842857D01*
X95666666Y-66985714D01*
X95619047Y-67080952D01*
X95571428Y-67128571D01*
X95476190Y-67176190D01*
X95095238Y-67176190D01*
X96095238Y-67128571D02*
X96428571Y-67128571D01*
X96571428Y-67652380D02*
X96095238Y-67652380D01*
X96095238Y-66652380D01*
X96571428Y-66652380D01*
X97333333Y-67128571D02*
X97000000Y-67128571D01*
X97000000Y-67652380D02*
X97000000Y-66652380D01*
X97476190Y-66652380D01*
X98000000Y-66652380D02*
X98000000Y-66890476D01*
X97761904Y-66795238D02*
X98000000Y-66890476D01*
X98238095Y-66795238D01*
X97857142Y-67080952D02*
X98000000Y-66890476D01*
X98142857Y-67080952D01*
X98761904Y-66652380D02*
X98761904Y-66890476D01*
X98523809Y-66795238D02*
X98761904Y-66890476D01*
X99000000Y-66795238D01*
X98619047Y-67080952D02*
X98761904Y-66890476D01*
X98904761Y-67080952D01*
X230914285Y-124652380D02*
X230914285Y-123652380D01*
X231247619Y-124366666D01*
X231580952Y-123652380D01*
X231580952Y-124652380D01*
X231961904Y-123652380D02*
X232628571Y-124652380D01*
X232628571Y-123652380D02*
X231961904Y-124652380D01*
X232961904Y-123747619D02*
X233009523Y-123700000D01*
X233104761Y-123652380D01*
X233342857Y-123652380D01*
X233438095Y-123700000D01*
X233485714Y-123747619D01*
X233533333Y-123842857D01*
X233533333Y-123938095D01*
X233485714Y-124080952D01*
X232914285Y-124652380D01*
X233533333Y-124652380D01*
X302601333Y-76626980D02*
X302268000Y-76150790D01*
X302029904Y-76626980D02*
X302029904Y-75626980D01*
X302410857Y-75626980D01*
X302506095Y-75674600D01*
X302553714Y-75722219D01*
X302601333Y-75817457D01*
X302601333Y-75960314D01*
X302553714Y-76055552D01*
X302506095Y-76103171D01*
X302410857Y-76150790D01*
X302029904Y-76150790D01*
X303553714Y-76626980D02*
X302982285Y-76626980D01*
X303268000Y-76626980D02*
X303268000Y-75626980D01*
X303172761Y-75769838D01*
X303077523Y-75865076D01*
X302982285Y-75912695D01*
X259343685Y-113008180D02*
X259343685Y-112008180D01*
X259677019Y-112722466D01*
X260010352Y-112008180D01*
X260010352Y-113008180D01*
X260391304Y-112008180D02*
X261057971Y-113008180D01*
X261057971Y-112008180D02*
X260391304Y-113008180D01*
X261867495Y-112341514D02*
X261867495Y-113008180D01*
X261629400Y-111960561D02*
X261391304Y-112674847D01*
X262010352Y-112674847D01*
X93266666Y-206852380D02*
X92933333Y-206376190D01*
X92695238Y-206852380D02*
X92695238Y-205852380D01*
X93076190Y-205852380D01*
X93171428Y-205900000D01*
X93219047Y-205947619D01*
X93266666Y-206042857D01*
X93266666Y-206185714D01*
X93219047Y-206280952D01*
X93171428Y-206328571D01*
X93076190Y-206376190D01*
X92695238Y-206376190D01*
X93695238Y-206328571D02*
X94028571Y-206328571D01*
X94171428Y-206852380D02*
X93695238Y-206852380D01*
X93695238Y-205852380D01*
X94171428Y-205852380D01*
X94933333Y-206328571D02*
X94600000Y-206328571D01*
X94600000Y-206852380D02*
X94600000Y-205852380D01*
X95076190Y-205852380D01*
X95600000Y-205852380D02*
X95600000Y-206090476D01*
X95361904Y-205995238D02*
X95600000Y-206090476D01*
X95838095Y-205995238D01*
X95457142Y-206280952D02*
X95600000Y-206090476D01*
X95742857Y-206280952D01*
X96361904Y-205852380D02*
X96361904Y-206090476D01*
X96123809Y-205995238D02*
X96361904Y-206090476D01*
X96600000Y-205995238D01*
X96219047Y-206280952D02*
X96361904Y-206090476D01*
X96504761Y-206280952D01*
X114236666Y-72354761D02*
X114379523Y-72402380D01*
X114617619Y-72402380D01*
X114712857Y-72354761D01*
X114760476Y-72307142D01*
X114808095Y-72211904D01*
X114808095Y-72116666D01*
X114760476Y-72021428D01*
X114712857Y-71973809D01*
X114617619Y-71926190D01*
X114427142Y-71878571D01*
X114331904Y-71830952D01*
X114284285Y-71783333D01*
X114236666Y-71688095D01*
X114236666Y-71592857D01*
X114284285Y-71497619D01*
X114331904Y-71450000D01*
X114427142Y-71402380D01*
X114665238Y-71402380D01*
X114808095Y-71450000D01*
X115141428Y-71402380D02*
X115379523Y-72402380D01*
X115570000Y-71688095D01*
X115760476Y-72402380D01*
X115998571Y-71402380D01*
X116284285Y-71402380D02*
X116903333Y-71402380D01*
X116570000Y-71783333D01*
X116712857Y-71783333D01*
X116808095Y-71830952D01*
X116855714Y-71878571D01*
X116903333Y-71973809D01*
X116903333Y-72211904D01*
X116855714Y-72307142D01*
X116808095Y-72354761D01*
X116712857Y-72402380D01*
X116427142Y-72402380D01*
X116331904Y-72354761D01*
X116284285Y-72307142D01*
X327666666Y-65852380D02*
X327333333Y-65376190D01*
X327095238Y-65852380D02*
X327095238Y-64852380D01*
X327476190Y-64852380D01*
X327571428Y-64900000D01*
X327619047Y-64947619D01*
X327666666Y-65042857D01*
X327666666Y-65185714D01*
X327619047Y-65280952D01*
X327571428Y-65328571D01*
X327476190Y-65376190D01*
X327095238Y-65376190D01*
X328095238Y-65328571D02*
X328428571Y-65328571D01*
X328571428Y-65852380D02*
X328095238Y-65852380D01*
X328095238Y-64852380D01*
X328571428Y-64852380D01*
X329333333Y-65328571D02*
X329000000Y-65328571D01*
X329000000Y-65852380D02*
X329000000Y-64852380D01*
X329476190Y-64852380D01*
X330000000Y-64852380D02*
X330000000Y-65090476D01*
X329761904Y-64995238D02*
X330000000Y-65090476D01*
X330238095Y-64995238D01*
X329857142Y-65280952D02*
X330000000Y-65090476D01*
X330142857Y-65280952D01*
X330761904Y-64852380D02*
X330761904Y-65090476D01*
X330523809Y-64995238D02*
X330761904Y-65090476D01*
X331000000Y-64995238D01*
X330619047Y-65280952D02*
X330761904Y-65090476D01*
X330904761Y-65280952D01*
X205473466Y-62724180D02*
X205140133Y-62247990D01*
X204902038Y-62724180D02*
X204902038Y-61724180D01*
X205282990Y-61724180D01*
X205378228Y-61771800D01*
X205425847Y-61819419D01*
X205473466Y-61914657D01*
X205473466Y-62057514D01*
X205425847Y-62152752D01*
X205378228Y-62200371D01*
X205282990Y-62247990D01*
X204902038Y-62247990D01*
X205902038Y-62200371D02*
X206235371Y-62200371D01*
X206378228Y-62724180D02*
X205902038Y-62724180D01*
X205902038Y-61724180D01*
X206378228Y-61724180D01*
X207140133Y-62200371D02*
X206806800Y-62200371D01*
X206806800Y-62724180D02*
X206806800Y-61724180D01*
X207282990Y-61724180D01*
X207806800Y-61724180D02*
X207806800Y-61962276D01*
X207568704Y-61867038D02*
X207806800Y-61962276D01*
X208044895Y-61867038D01*
X207663942Y-62152752D02*
X207806800Y-61962276D01*
X207949657Y-62152752D01*
X208568704Y-61724180D02*
X208568704Y-61962276D01*
X208330609Y-61867038D02*
X208568704Y-61962276D01*
X208806800Y-61867038D01*
X208425847Y-62152752D02*
X208568704Y-61962276D01*
X208711561Y-62152752D01*
X159956666Y-72354761D02*
X160099523Y-72402380D01*
X160337619Y-72402380D01*
X160432857Y-72354761D01*
X160480476Y-72307142D01*
X160528095Y-72211904D01*
X160528095Y-72116666D01*
X160480476Y-72021428D01*
X160432857Y-71973809D01*
X160337619Y-71926190D01*
X160147142Y-71878571D01*
X160051904Y-71830952D01*
X160004285Y-71783333D01*
X159956666Y-71688095D01*
X159956666Y-71592857D01*
X160004285Y-71497619D01*
X160051904Y-71450000D01*
X160147142Y-71402380D01*
X160385238Y-71402380D01*
X160528095Y-71450000D01*
X160861428Y-71402380D02*
X161099523Y-72402380D01*
X161290000Y-71688095D01*
X161480476Y-72402380D01*
X161718571Y-71402380D01*
X162623333Y-72402380D02*
X162051904Y-72402380D01*
X162337619Y-72402380D02*
X162337619Y-71402380D01*
X162242380Y-71545238D01*
X162147142Y-71640476D01*
X162051904Y-71688095D01*
X100401285Y-118418380D02*
X100401285Y-117418380D01*
X100734619Y-118132666D01*
X101067952Y-117418380D01*
X101067952Y-118418380D01*
X101448904Y-117418380D02*
X102115571Y-118418380D01*
X102115571Y-117418380D02*
X101448904Y-118418380D01*
X102972714Y-117418380D02*
X102496523Y-117418380D01*
X102448904Y-117894571D01*
X102496523Y-117846952D01*
X102591761Y-117799333D01*
X102829857Y-117799333D01*
X102925095Y-117846952D01*
X102972714Y-117894571D01*
X103020333Y-117989809D01*
X103020333Y-118227904D01*
X102972714Y-118323142D01*
X102925095Y-118370761D01*
X102829857Y-118418380D01*
X102591761Y-118418380D01*
X102496523Y-118370761D01*
X102448904Y-118323142D01*
X207266666Y-209452380D02*
X206933333Y-208976190D01*
X206695238Y-209452380D02*
X206695238Y-208452380D01*
X207076190Y-208452380D01*
X207171428Y-208500000D01*
X207219047Y-208547619D01*
X207266666Y-208642857D01*
X207266666Y-208785714D01*
X207219047Y-208880952D01*
X207171428Y-208928571D01*
X207076190Y-208976190D01*
X206695238Y-208976190D01*
X207695238Y-208928571D02*
X208028571Y-208928571D01*
X208171428Y-209452380D02*
X207695238Y-209452380D01*
X207695238Y-208452380D01*
X208171428Y-208452380D01*
X208933333Y-208928571D02*
X208600000Y-208928571D01*
X208600000Y-209452380D02*
X208600000Y-208452380D01*
X209076190Y-208452380D01*
X209600000Y-208452380D02*
X209600000Y-208690476D01*
X209361904Y-208595238D02*
X209600000Y-208690476D01*
X209838095Y-208595238D01*
X209457142Y-208880952D02*
X209600000Y-208690476D01*
X209742857Y-208880952D01*
X210361904Y-208452380D02*
X210361904Y-208690476D01*
X210123809Y-208595238D02*
X210361904Y-208690476D01*
X210600000Y-208595238D01*
X210219047Y-208880952D02*
X210361904Y-208690476D01*
X210504761Y-208880952D01*
X302601333Y-78912980D02*
X302268000Y-78436790D01*
X302029904Y-78912980D02*
X302029904Y-77912980D01*
X302410857Y-77912980D01*
X302506095Y-77960600D01*
X302553714Y-78008219D01*
X302601333Y-78103457D01*
X302601333Y-78246314D01*
X302553714Y-78341552D01*
X302506095Y-78389171D01*
X302410857Y-78436790D01*
X302029904Y-78436790D01*
X302982285Y-78008219D02*
X303029904Y-77960600D01*
X303125142Y-77912980D01*
X303363238Y-77912980D01*
X303458476Y-77960600D01*
X303506095Y-78008219D01*
X303553714Y-78103457D01*
X303553714Y-78198695D01*
X303506095Y-78341552D01*
X302934666Y-78912980D01*
X303553714Y-78912980D01*
X155660885Y-133048780D02*
X155660885Y-132048780D01*
X155994219Y-132763066D01*
X156327552Y-132048780D01*
X156327552Y-133048780D01*
X156708504Y-132048780D02*
X157375171Y-133048780D01*
X157375171Y-132048780D02*
X156708504Y-133048780D01*
X157660885Y-132048780D02*
X158327552Y-132048780D01*
X157898980Y-133048780D01*
X288361285Y-114608380D02*
X288361285Y-113608380D01*
X288694619Y-114322666D01*
X289027952Y-113608380D01*
X289027952Y-114608380D01*
X289408904Y-113608380D02*
X290075571Y-114608380D01*
X290075571Y-113608380D02*
X289408904Y-114608380D01*
X290885095Y-113608380D02*
X290694619Y-113608380D01*
X290599380Y-113656000D01*
X290551761Y-113703619D01*
X290456523Y-113846476D01*
X290408904Y-114036952D01*
X290408904Y-114417904D01*
X290456523Y-114513142D01*
X290504142Y-114560761D01*
X290599380Y-114608380D01*
X290789857Y-114608380D01*
X290885095Y-114560761D01*
X290932714Y-114513142D01*
X290980333Y-114417904D01*
X290980333Y-114179809D01*
X290932714Y-114084571D01*
X290885095Y-114036952D01*
X290789857Y-113989333D01*
X290599380Y-113989333D01*
X290504142Y-114036952D01*
X290456523Y-114084571D01*
X290408904Y-114179809D01*
X192976666Y-72354761D02*
X193119523Y-72402380D01*
X193357619Y-72402380D01*
X193452857Y-72354761D01*
X193500476Y-72307142D01*
X193548095Y-72211904D01*
X193548095Y-72116666D01*
X193500476Y-72021428D01*
X193452857Y-71973809D01*
X193357619Y-71926190D01*
X193167142Y-71878571D01*
X193071904Y-71830952D01*
X193024285Y-71783333D01*
X192976666Y-71688095D01*
X192976666Y-71592857D01*
X193024285Y-71497619D01*
X193071904Y-71450000D01*
X193167142Y-71402380D01*
X193405238Y-71402380D01*
X193548095Y-71450000D01*
X193881428Y-71402380D02*
X194119523Y-72402380D01*
X194310000Y-71688095D01*
X194500476Y-72402380D01*
X194738571Y-71402380D01*
X195595714Y-71402380D02*
X195119523Y-71402380D01*
X195071904Y-71878571D01*
X195119523Y-71830952D01*
X195214761Y-71783333D01*
X195452857Y-71783333D01*
X195548095Y-71830952D01*
X195595714Y-71878571D01*
X195643333Y-71973809D01*
X195643333Y-72211904D01*
X195595714Y-72307142D01*
X195548095Y-72354761D01*
X195452857Y-72402380D01*
X195214761Y-72402380D01*
X195119523Y-72354761D01*
X195071904Y-72307142D01*
X228203285Y-153063980D02*
X228203285Y-152063980D01*
X228536619Y-152778266D01*
X228869952Y-152063980D01*
X228869952Y-153063980D01*
X229250904Y-152063980D02*
X229917571Y-153063980D01*
X229917571Y-152063980D02*
X229250904Y-153063980D01*
X230346142Y-153063980D02*
X230536619Y-153063980D01*
X230631857Y-153016361D01*
X230679476Y-152968742D01*
X230774714Y-152825885D01*
X230822333Y-152635409D01*
X230822333Y-152254457D01*
X230774714Y-152159219D01*
X230727095Y-152111600D01*
X230631857Y-152063980D01*
X230441380Y-152063980D01*
X230346142Y-152111600D01*
X230298523Y-152159219D01*
X230250904Y-152254457D01*
X230250904Y-152492552D01*
X230298523Y-152587790D01*
X230346142Y-152635409D01*
X230441380Y-152683028D01*
X230631857Y-152683028D01*
X230727095Y-152635409D01*
X230774714Y-152587790D01*
X230822333Y-152492552D01*
X292102144Y-189055885D02*
X292102144Y-189865409D01*
X292149763Y-189960647D01*
X292197382Y-190008266D01*
X292292620Y-190055885D01*
X292483096Y-190055885D01*
X292578334Y-190008266D01*
X292625953Y-189960647D01*
X292673572Y-189865409D01*
X292673572Y-189055885D01*
X293673572Y-190055885D02*
X293102144Y-190055885D01*
X293387858Y-190055885D02*
X293387858Y-189055885D01*
X293292620Y-189198743D01*
X293197382Y-189293981D01*
X293102144Y-189341600D01*
X256135095Y-142548380D02*
X256135095Y-141548380D01*
X256468428Y-142262666D01*
X256801761Y-141548380D01*
X256801761Y-142548380D01*
X257182714Y-141548380D02*
X257849380Y-142548380D01*
X257849380Y-141548380D02*
X257182714Y-142548380D01*
X258754142Y-142548380D02*
X258182714Y-142548380D01*
X258468428Y-142548380D02*
X258468428Y-141548380D01*
X258373190Y-141691238D01*
X258277952Y-141786476D01*
X258182714Y-141834095D01*
X259706523Y-142548380D02*
X259135095Y-142548380D01*
X259420809Y-142548380D02*
X259420809Y-141548380D01*
X259325571Y-141691238D01*
X259230333Y-141786476D01*
X259135095Y-141834095D01*
X284750095Y-142548380D02*
X284750095Y-141548380D01*
X285083428Y-142262666D01*
X285416761Y-141548380D01*
X285416761Y-142548380D01*
X285797714Y-141548380D02*
X286464380Y-142548380D01*
X286464380Y-141548380D02*
X285797714Y-142548380D01*
X287369142Y-142548380D02*
X286797714Y-142548380D01*
X287083428Y-142548380D02*
X287083428Y-141548380D01*
X286988190Y-141691238D01*
X286892952Y-141786476D01*
X286797714Y-141834095D01*
X287988190Y-141548380D02*
X288083428Y-141548380D01*
X288178666Y-141596000D01*
X288226285Y-141643619D01*
X288273904Y-141738857D01*
X288321523Y-141929333D01*
X288321523Y-142167428D01*
X288273904Y-142357904D01*
X288226285Y-142453142D01*
X288178666Y-142500761D01*
X288083428Y-142548380D01*
X287988190Y-142548380D01*
X287892952Y-142500761D01*
X287845333Y-142453142D01*
X287797714Y-142357904D01*
X287750095Y-142167428D01*
X287750095Y-141929333D01*
X287797714Y-141738857D01*
X287845333Y-141643619D01*
X287892952Y-141596000D01*
X287988190Y-141548380D01*
X327266666Y-208652380D02*
X326933333Y-208176190D01*
X326695238Y-208652380D02*
X326695238Y-207652380D01*
X327076190Y-207652380D01*
X327171428Y-207700000D01*
X327219047Y-207747619D01*
X327266666Y-207842857D01*
X327266666Y-207985714D01*
X327219047Y-208080952D01*
X327171428Y-208128571D01*
X327076190Y-208176190D01*
X326695238Y-208176190D01*
X327695238Y-208128571D02*
X328028571Y-208128571D01*
X328171428Y-208652380D02*
X327695238Y-208652380D01*
X327695238Y-207652380D01*
X328171428Y-207652380D01*
X328933333Y-208128571D02*
X328600000Y-208128571D01*
X328600000Y-208652380D02*
X328600000Y-207652380D01*
X329076190Y-207652380D01*
X329600000Y-207652380D02*
X329600000Y-207890476D01*
X329361904Y-207795238D02*
X329600000Y-207890476D01*
X329838095Y-207795238D01*
X329457142Y-208080952D02*
X329600000Y-207890476D01*
X329742857Y-208080952D01*
X330361904Y-207652380D02*
X330361904Y-207890476D01*
X330123809Y-207795238D02*
X330361904Y-207890476D01*
X330600000Y-207795238D01*
X330219047Y-208080952D02*
X330361904Y-207890476D01*
X330504761Y-208080952D01*
X130032285Y-117834180D02*
X130032285Y-116834180D01*
X130365619Y-117548466D01*
X130698952Y-116834180D01*
X130698952Y-117834180D01*
X131079904Y-116834180D02*
X131746571Y-117834180D01*
X131746571Y-116834180D02*
X131079904Y-117834180D01*
X132032285Y-116834180D02*
X132651333Y-116834180D01*
X132318000Y-117215133D01*
X132460857Y-117215133D01*
X132556095Y-117262752D01*
X132603714Y-117310371D01*
X132651333Y-117405609D01*
X132651333Y-117643704D01*
X132603714Y-117738942D01*
X132556095Y-117786561D01*
X132460857Y-117834180D01*
X132175142Y-117834180D01*
X132079904Y-117786561D01*
X132032285Y-117738942D01*
X170714285Y-188052380D02*
X170714285Y-187052380D01*
X171047619Y-187766666D01*
X171380952Y-187052380D01*
X171380952Y-188052380D01*
X171761904Y-187052380D02*
X172428571Y-188052380D01*
X172428571Y-187052380D02*
X171761904Y-188052380D01*
X173333333Y-188052380D02*
X172761904Y-188052380D01*
X173047619Y-188052380D02*
X173047619Y-187052380D01*
X172952380Y-187195238D01*
X172857142Y-187290476D01*
X172761904Y-187338095D01*
X144716666Y-72064761D02*
X144859523Y-72112380D01*
X145097619Y-72112380D01*
X145192857Y-72064761D01*
X145240476Y-72017142D01*
X145288095Y-71921904D01*
X145288095Y-71826666D01*
X145240476Y-71731428D01*
X145192857Y-71683809D01*
X145097619Y-71636190D01*
X144907142Y-71588571D01*
X144811904Y-71540952D01*
X144764285Y-71493333D01*
X144716666Y-71398095D01*
X144716666Y-71302857D01*
X144764285Y-71207619D01*
X144811904Y-71160000D01*
X144907142Y-71112380D01*
X145145238Y-71112380D01*
X145288095Y-71160000D01*
X145621428Y-71112380D02*
X145859523Y-72112380D01*
X146050000Y-71398095D01*
X146240476Y-72112380D01*
X146478571Y-71112380D01*
X146811904Y-71207619D02*
X146859523Y-71160000D01*
X146954761Y-71112380D01*
X147192857Y-71112380D01*
X147288095Y-71160000D01*
X147335714Y-71207619D01*
X147383333Y-71302857D01*
X147383333Y-71398095D01*
X147335714Y-71540952D01*
X146764285Y-72112380D01*
X147383333Y-72112380D01*
D11*
X311400000Y-117200000D02*
X326600000Y-117200000D01*
X326600000Y-117200000D02*
X326600000Y-102000000D01*
X326600000Y-102000000D02*
X311400000Y-102000000D01*
X311400000Y-102000000D02*
X311400000Y-117200000D01*
X128560000Y-79450000D02*
X133060000Y-79450000D01*
X134310000Y-76950000D02*
X134310000Y-75450000D01*
X127310000Y-75450000D02*
X127310000Y-76950000D01*
X133060000Y-72950000D02*
X128560000Y-72950000D01*
X174990000Y-79450000D02*
X179490000Y-79450000D01*
X180740000Y-76950000D02*
X180740000Y-75450000D01*
X179490000Y-72950000D02*
X174990000Y-72950000D01*
X173740000Y-75450000D02*
X173740000Y-76950000D01*
X308426800Y-149636800D02*
X323626800Y-149636800D01*
X308426800Y-134436800D02*
X308426800Y-149636800D01*
X323626800Y-149636800D02*
X323626800Y-134436800D01*
X323626800Y-134436800D02*
X308426800Y-134436800D01*
X224600000Y-107600000D02*
X224600000Y-122800000D01*
X239800000Y-107600000D02*
X224600000Y-107600000D01*
X239800000Y-122800000D02*
X239800000Y-107600000D01*
X224600000Y-122800000D02*
X239800000Y-122800000D01*
X299827064Y-75465000D02*
X299372936Y-75465000D01*
X299827064Y-76935000D02*
X299372936Y-76935000D01*
X268229400Y-111155800D02*
X268229400Y-95955800D01*
X268229400Y-95955800D02*
X253029400Y-95955800D01*
X253029400Y-95955800D02*
X253029400Y-111155800D01*
X253029400Y-111155800D02*
X268229400Y-111155800D01*
X119070000Y-76950000D02*
X119070000Y-75450000D01*
X113320000Y-79450000D02*
X117820000Y-79450000D01*
X112070000Y-75450000D02*
X112070000Y-76950000D01*
X117820000Y-72950000D02*
X113320000Y-72950000D01*
X157790000Y-75450000D02*
X157790000Y-76950000D01*
X159040000Y-79450000D02*
X163540000Y-79450000D01*
X164790000Y-76950000D02*
X164790000Y-75450000D01*
X163540000Y-72950000D02*
X159040000Y-72950000D01*
X94087000Y-116566000D02*
X109287000Y-116566000D01*
X109287000Y-101366000D02*
X94087000Y-101366000D01*
X109287000Y-116566000D02*
X109287000Y-101366000D01*
X94087000Y-101366000D02*
X94087000Y-116566000D01*
X299372936Y-77865000D02*
X299827064Y-77865000D01*
X299372936Y-79335000D02*
X299827064Y-79335000D01*
X149346600Y-131196400D02*
X164546600Y-131196400D01*
X149346600Y-115996400D02*
X149346600Y-131196400D01*
X164546600Y-115996400D02*
X149346600Y-115996400D01*
X164546600Y-131196400D02*
X164546600Y-115996400D01*
X297247000Y-97556000D02*
X282047000Y-97556000D01*
X297247000Y-112756000D02*
X297247000Y-97556000D01*
X282047000Y-97556000D02*
X282047000Y-112756000D01*
X282047000Y-112756000D02*
X297247000Y-112756000D01*
X196560000Y-72950000D02*
X192060000Y-72950000D01*
X192060000Y-79450000D02*
X196560000Y-79450000D01*
X190810000Y-75450000D02*
X190810000Y-76950000D01*
X197810000Y-76950000D02*
X197810000Y-75450000D01*
X221889000Y-151211600D02*
X237089000Y-151211600D01*
X237089000Y-151211600D02*
X237089000Y-136011600D01*
X237089000Y-136011600D02*
X221889000Y-136011600D01*
X221889000Y-136011600D02*
X221889000Y-151211600D01*
X250297000Y-140696000D02*
X265497000Y-140696000D01*
X265497000Y-140696000D02*
X265497000Y-125496000D01*
X250297000Y-125496000D02*
X250297000Y-140696000D01*
X265497000Y-125496000D02*
X250297000Y-125496000D01*
X294112000Y-140696000D02*
X294112000Y-125496000D01*
X278912000Y-140696000D02*
X294112000Y-140696000D01*
X294112000Y-125496000D02*
X278912000Y-125496000D01*
X278912000Y-125496000D02*
X278912000Y-140696000D01*
X138918000Y-100781800D02*
X123718000Y-100781800D01*
X123718000Y-100781800D02*
X123718000Y-115981800D01*
X123718000Y-115981800D02*
X138918000Y-115981800D01*
X138918000Y-115981800D02*
X138918000Y-100781800D01*
X179600000Y-171000000D02*
X164400000Y-171000000D01*
X179600000Y-186200000D02*
X179600000Y-171000000D01*
X164400000Y-171000000D02*
X164400000Y-186200000D01*
X164400000Y-186200000D02*
X179600000Y-186200000D01*
X149550000Y-76660000D02*
X149550000Y-75160000D01*
X143800000Y-79160000D02*
X148300000Y-79160000D01*
X148300000Y-72660000D02*
X143800000Y-72660000D01*
X142550000Y-75160000D02*
X142550000Y-76660000D01*
%LPC*%
D12*
X319000000Y-109600000D03*
D13*
X127560000Y-73950000D03*
X134060000Y-73950000D03*
X127560000Y-78450000D03*
X134060000Y-78450000D03*
X173990000Y-73950000D03*
X180490000Y-73950000D03*
X180490000Y-78450000D03*
X173990000Y-78450000D03*
D14*
X221900000Y-65850000D03*
X227680000Y-65850000D03*
D15*
X228015000Y-67295000D03*
X227240000Y-67295000D03*
D16*
X226540000Y-67295000D03*
X226040000Y-67295000D03*
X225540000Y-67295000D03*
X225040000Y-67295000D03*
X224540000Y-67295000D03*
X224040000Y-67295000D03*
X223540000Y-67295000D03*
X223040000Y-67295000D03*
D15*
X222340000Y-67295000D03*
X221565000Y-67295000D03*
D12*
X316026800Y-142036800D03*
D17*
X97000000Y-71400000D03*
D12*
X232200000Y-115200000D03*
D18*
X300600000Y-76200000D03*
X298600000Y-76200000D03*
D12*
X260629400Y-103555800D03*
D17*
X94600000Y-210600000D03*
D13*
X112320000Y-73950000D03*
X118820000Y-73950000D03*
X112320000Y-78450000D03*
X118820000Y-78450000D03*
D17*
X329000000Y-69600000D03*
X206806800Y-66471800D03*
D13*
X158040000Y-73950000D03*
X164540000Y-73950000D03*
X164540000Y-78450000D03*
X158040000Y-78450000D03*
D12*
X101687000Y-108966000D03*
D17*
X208600000Y-213200000D03*
D19*
X298600000Y-78600000D03*
X300600000Y-78600000D03*
D12*
X156946600Y-123596400D03*
X289647000Y-105156000D03*
D13*
X191060000Y-73950000D03*
X197560000Y-73950000D03*
X191060000Y-78450000D03*
X197560000Y-78450000D03*
D12*
X229489000Y-143611600D03*
D13*
X307844049Y-169893505D03*
X307844049Y-167353505D03*
X305314049Y-169893505D03*
X305314049Y-167353505D03*
X302774049Y-169903505D03*
X302774049Y-167353505D03*
X300234049Y-169890185D03*
X300234049Y-167353505D03*
X297694049Y-169893505D03*
X297694049Y-167353505D03*
X295154049Y-169893505D03*
X295154049Y-167353505D03*
X292614049Y-169893505D03*
X292614049Y-167353505D03*
X290074049Y-169893505D03*
X290074049Y-167353505D03*
X287534049Y-169893505D03*
X287534049Y-167353505D03*
D20*
X284994049Y-169893505D03*
D13*
X284994049Y-167353505D03*
X311834049Y-177493505D03*
X311834049Y-180033505D03*
X311834049Y-182573505D03*
D20*
X311834049Y-185113505D03*
D21*
X311834049Y-190089505D03*
X311834049Y-192117505D03*
X311834049Y-194117505D03*
X311834049Y-196117505D03*
X311834049Y-198117505D03*
D22*
X262740049Y-169297505D03*
D21*
X260740049Y-169297505D03*
X258740049Y-169297505D03*
X256740049Y-169297505D03*
D13*
X249203049Y-172501505D03*
X246663049Y-172501505D03*
X244123049Y-172501505D03*
D20*
X241583049Y-172501505D03*
D23*
X306850049Y-205558505D03*
X303260049Y-205558505D03*
X299760049Y-205558505D03*
X296260049Y-205558505D03*
X292760049Y-205558505D03*
X289260049Y-205558505D03*
X285760049Y-205558505D03*
X282260049Y-205558505D03*
X278760049Y-205558505D03*
X275260049Y-205558505D03*
X271760049Y-205558505D03*
X268260049Y-205558505D03*
X264760049Y-205558505D03*
X261260049Y-205558505D03*
X257760049Y-205558505D03*
X254260049Y-205558505D03*
X250760049Y-205558505D03*
X247260049Y-205558505D03*
X243760049Y-205558505D03*
X240260049Y-205558505D03*
D12*
X257897000Y-133096000D03*
X286512000Y-133096000D03*
D17*
X328600000Y-212400000D03*
D12*
X131318000Y-108381800D03*
X172000000Y-178600000D03*
D13*
X142800000Y-73660000D03*
X149300000Y-73660000D03*
X149300000Y-78160000D03*
X142800000Y-78160000D03*
M02*
