%TF.GenerationSoftware,KiCad,Pcbnew,(6.0.2)*%
%TF.CreationDate,2022-05-18T13:57:05-05:00*%
%TF.ProjectId,Pikin,50696b69-6e2e-46b6-9963-61645f706362,rev?*%
%TF.SameCoordinates,Original*%
%TF.FileFunction,Soldermask,Top*%
%TF.FilePolarity,Negative*%
%FSLAX46Y46*%
G04 Gerber Fmt 4.6, Leading zero omitted, Abs format (unit mm)*
G04 Created by KiCad (PCBNEW (6.0.2)) date 2022-05-18 13:57:05*
%MOMM*%
%LPD*%
G01*
G04 APERTURE LIST*
G04 Aperture macros list*
%AMRoundRect*
0 Rectangle with rounded corners*
0 $1 Rounding radius*
0 $2 $3 $4 $5 $6 $7 $8 $9 X,Y pos of 4 corners*
0 Add a 4 corners polygon primitive as box body*
4,1,4,$2,$3,$4,$5,$6,$7,$8,$9,$2,$3,0*
0 Add four circle primitives for the rounded corners*
1,1,$1+$1,$2,$3*
1,1,$1+$1,$4,$5*
1,1,$1+$1,$6,$7*
1,1,$1+$1,$8,$9*
0 Add four rect primitives between the rounded corners*
20,1,$1+$1,$2,$3,$4,$5,0*
20,1,$1+$1,$4,$5,$6,$7,0*
20,1,$1+$1,$6,$7,$8,$9,0*
20,1,$1+$1,$8,$9,$2,$3,0*%
G04 Aperture macros list end*
%ADD10C,5.050000*%
%ADD11C,2.000000*%
%ADD12C,0.650000*%
%ADD13R,0.600000X1.450000*%
%ADD14R,0.300000X1.450000*%
%ADD15C,3.200000*%
%ADD16RoundRect,0.250000X0.350000X0.450000X-0.350000X0.450000X-0.350000X-0.450000X0.350000X-0.450000X0*%
%ADD17RoundRect,0.250000X-0.350000X-0.450000X0.350000X-0.450000X0.350000X0.450000X-0.350000X0.450000X0*%
%ADD18R,2.000000X2.000000*%
%ADD19C,1.700000*%
%ADD20R,1.700000X1.700000*%
%ADD21C,2.500000*%
G04 APERTURE END LIST*
D10*
X319000000Y-109600000D03*
D11*
X127560000Y-73950000D03*
X134060000Y-73950000D03*
X127560000Y-78450000D03*
X134060000Y-78450000D03*
X173990000Y-73950000D03*
X180490000Y-73950000D03*
X180490000Y-78450000D03*
X173990000Y-78450000D03*
D12*
X221900000Y-65850000D03*
X227680000Y-65850000D03*
D13*
X228015000Y-67295000D03*
X227240000Y-67295000D03*
D14*
X226540000Y-67295000D03*
X226040000Y-67295000D03*
X225540000Y-67295000D03*
X225040000Y-67295000D03*
X224540000Y-67295000D03*
X224040000Y-67295000D03*
X223540000Y-67295000D03*
X223040000Y-67295000D03*
D13*
X222340000Y-67295000D03*
X221565000Y-67295000D03*
D10*
X316026800Y-142036800D03*
D15*
X97000000Y-71400000D03*
D10*
X232200000Y-115200000D03*
D16*
X300600000Y-76200000D03*
X298600000Y-76200000D03*
D10*
X260629400Y-103555800D03*
D15*
X94600000Y-210600000D03*
D11*
X112320000Y-73950000D03*
X118820000Y-73950000D03*
X112320000Y-78450000D03*
X118820000Y-78450000D03*
D15*
X329000000Y-69600000D03*
X206806800Y-66471800D03*
D11*
X158040000Y-73950000D03*
X164540000Y-73950000D03*
X164540000Y-78450000D03*
X158040000Y-78450000D03*
D10*
X101687000Y-108966000D03*
D15*
X208600000Y-213200000D03*
D17*
X298600000Y-78600000D03*
X300600000Y-78600000D03*
D10*
X156946600Y-123596400D03*
X289647000Y-105156000D03*
D11*
X191060000Y-73950000D03*
X197560000Y-73950000D03*
X191060000Y-78450000D03*
X197560000Y-78450000D03*
D10*
X229489000Y-143611600D03*
D11*
X307844049Y-169893505D03*
X307844049Y-167353505D03*
X305314049Y-169893505D03*
X305314049Y-167353505D03*
X302774049Y-169903505D03*
X302774049Y-167353505D03*
X300234049Y-169890185D03*
X300234049Y-167353505D03*
X297694049Y-169893505D03*
X297694049Y-167353505D03*
X295154049Y-169893505D03*
X295154049Y-167353505D03*
X292614049Y-169893505D03*
X292614049Y-167353505D03*
X290074049Y-169893505D03*
X290074049Y-167353505D03*
X287534049Y-169893505D03*
X287534049Y-167353505D03*
D18*
X284994049Y-169893505D03*
D11*
X284994049Y-167353505D03*
X311834049Y-177493505D03*
X311834049Y-180033505D03*
X311834049Y-182573505D03*
D18*
X311834049Y-185113505D03*
D19*
X311834049Y-190089505D03*
X311834049Y-192117505D03*
X311834049Y-194117505D03*
X311834049Y-196117505D03*
X311834049Y-198117505D03*
D20*
X262740049Y-169297505D03*
D19*
X260740049Y-169297505D03*
X258740049Y-169297505D03*
X256740049Y-169297505D03*
D11*
X249203049Y-172501505D03*
X246663049Y-172501505D03*
X244123049Y-172501505D03*
D18*
X241583049Y-172501505D03*
D21*
X306850049Y-205558505D03*
X303260049Y-205558505D03*
X299760049Y-205558505D03*
X296260049Y-205558505D03*
X292760049Y-205558505D03*
X289260049Y-205558505D03*
X285760049Y-205558505D03*
X282260049Y-205558505D03*
X278760049Y-205558505D03*
X275260049Y-205558505D03*
X271760049Y-205558505D03*
X268260049Y-205558505D03*
X264760049Y-205558505D03*
X261260049Y-205558505D03*
X257760049Y-205558505D03*
X254260049Y-205558505D03*
X250760049Y-205558505D03*
X247260049Y-205558505D03*
X243760049Y-205558505D03*
X240260049Y-205558505D03*
D10*
X257897000Y-133096000D03*
X286512000Y-133096000D03*
D15*
X328600000Y-212400000D03*
D10*
X131318000Y-108381800D03*
X172000000Y-178600000D03*
D11*
X142800000Y-73660000D03*
X149300000Y-73660000D03*
X149300000Y-78160000D03*
X142800000Y-78160000D03*
M02*
